<svg width="16" height="16" viewBox="0 0 16 16" fill="none" xmlns="http://www.w3.org/2000/svg">
<path fill-rule="evenodd" clip-rule="evenodd" d="M8.47139 1.5282C8.34637 1.40322 8.17683 1.33301 8.00005 1.33301C7.82328 1.33301 7.65374 1.40322 7.52872 1.5282L2.86205 6.19487L1.52872 7.5282C1.46505 7.5897 1.41426 7.66326 1.37932 7.7446C1.34438 7.82593 1.32599 7.91341 1.32522 8.00193C1.32445 8.09045 1.34132 8.17824 1.37484 8.26017C1.40836 8.3421 1.45786 8.41653 1.52046 8.47913C1.58305 8.54172 1.65749 8.59123 1.73942 8.62475C1.82135 8.65827 1.90914 8.67514 1.99765 8.67437C2.08617 8.6736 2.17365 8.65521 2.25499 8.62027C2.33633 8.58533 2.40989 8.53454 2.47139 8.47087L2.66672 8.27553V12.6662C2.66672 13.1966 2.87743 13.7053 3.25251 14.0804C3.62758 14.4555 4.13629 14.6662 4.66672 14.6662H11.3334C11.8638 14.6662 12.3725 14.4555 12.7476 14.0804C13.1227 13.7053 13.3334 13.1966 13.3334 12.6662V8.27553L13.5287 8.47087C13.6545 8.5923 13.8229 8.6595 13.9977 8.65798C14.1725 8.65646 14.3397 8.58635 14.4633 8.46274C14.5869 8.33914 14.657 8.17193 14.6585 7.99713C14.66 7.82233 14.5928 7.65393 14.4714 7.5282L8.47139 1.5282Z" fill="black"/>
</svg>
